<svg xmlns="http://www.w3.org/2000/svg" viewBox="0 0 64 64" role="img" aria-label="China flag">
  <rect width="64" height="64" rx="32" fill="#DE2910"/>
  <g fill="#FFDE00">
    <path d="M20 14l1.8 5.5H27l-4.2 3.1 1.6 5.4-4.4-3.2-4.4 3.2 1.6-5.4L13 19.5h5.2z"/>
    <path d="M31 12l.9 2.8H35l-2.3 1.7.9 2.8-2.4-1.7-2.4 1.7.9-2.8-2.3-1.7h3.1z"/>
    <path d="M36 19l.9 2.8H40l-2.3 1.7.9 2.8-2.4-1.7-2.4 1.7.9-2.8-2.3-1.7h3.1z"/>
    <path d="M36 29l.9 2.8H40l-2.3 1.7.9 2.8-2.4-1.7-2.4 1.7.9-2.8-2.3-1.7h3.1z"/>
    <path d="M30 36l.9 2.8H34l-2.3 1.7.9 2.8-2.4-1.7-2.4 1.7.9-2.8-2.3-1.7h3.1z"/>
  </g>
</svg>
